<?xml version="1.0" encoding="UTF-8" standalone="no"?>

<svg
   xmlns:dc="http://purl.org/dc/elements/1.1/"
   xmlns:cc="http://creativecommons.org/ns#"
   xmlns:rdf="http://www.w3.org/1999/02/22-rdf-syntax-ns#"
   xmlns:svg="http://www.w3.org/2000/svg"
   xmlns="http://www.w3.org/2000/svg"
   xmlns:inkscape="http://www.inkscape.org/namespaces/inkscape"
   width="495"
   height="600"
   id="svg2"
   version="1.1"
>
<style>
.my_style { font: 20px "Arial", Serif; }
</style>
<defs>
<marker id="arrow" markerWidth="4" markerHeight="4" refX="0" refY="2.0" orient="auto" markerUnits="strokeWidth">
<path d="M0,0 V4 L4,2.0 z" fill="black" />
</marker>
</defs>
<rect x="5" y="10" rx="20" ry="20" width="200" height="35" style="fill:none;stroke:black;stroke-width:3;" />
<text x="20" y="35" class="my_style">Application Layer</text>
<rect x="5" y="95" rx="20" ry="20" width="200" height="35" style="fill:none;stroke:black;stroke-width:3;" />
<text x="20" y="120" class="my_style">Presentation Layer</text>
<line x1="125.0" y1="95" x2="125.0" y2="58.5" style="stroke:black;stroke-width:3" marker-end="url(#arrow)" />
<line x1="85.0" y1="45" x2="85.0" y2="81.5" style="stroke:black;stroke-width:3" marker-end="url(#arrow)" />
<rect x="5" y="180" rx="20" ry="20" width="200" height="35" style="fill:none;stroke:black;stroke-width:3;" />
<text x="20" y="205" class="my_style">Session Layer</text>
<line x1="125.0" y1="180" x2="125.0" y2="143.5" style="stroke:black;stroke-width:3" marker-end="url(#arrow)" />
<line x1="85.0" y1="130" x2="85.0" y2="166.5" style="stroke:black;stroke-width:3" marker-end="url(#arrow)" />
<rect x="5" y="265" rx="20" ry="20" width="200" height="35" style="fill:none;stroke:black;stroke-width:3;" />
<text x="20" y="290" class="my_style">Transport Layer</text>
<line x1="125.0" y1="265" x2="125.0" y2="228.5" style="stroke:black;stroke-width:3" marker-end="url(#arrow)" />
<line x1="85.0" y1="215" x2="85.0" y2="251.5" style="stroke:black;stroke-width:3" marker-end="url(#arrow)" />
<rect x="5" y="350" rx="20" ry="20" width="200" height="35" style="fill:none;stroke:black;stroke-width:3;" />
<text x="20" y="375" class="my_style">Networking Layer</text>
<line x1="125.0" y1="350" x2="125.0" y2="313.5" style="stroke:black;stroke-width:3" marker-end="url(#arrow)" />
<line x1="85.0" y1="300" x2="85.0" y2="336.5" style="stroke:black;stroke-width:3" marker-end="url(#arrow)" />
<rect x="5" y="435" rx="20" ry="20" width="200" height="35" style="fill:none;stroke:black;stroke-width:3;" />
<text x="20" y="460" class="my_style">Data Link Layer</text>
<line x1="125.0" y1="435" x2="125.0" y2="398.5" style="stroke:black;stroke-width:3" marker-end="url(#arrow)" />
<line x1="85.0" y1="385" x2="85.0" y2="421.5" style="stroke:black;stroke-width:3" marker-end="url(#arrow)" />
<rect x="5" y="520" rx="20" ry="20" width="200" height="35" style="fill:none;stroke:black;stroke-width:3;" />
<text x="20" y="545" class="my_style">Physical Layer</text>
<line x1="125.0" y1="520" x2="125.0" y2="483.5" style="stroke:black;stroke-width:3" marker-end="url(#arrow)" />
<line x1="85.0" y1="470" x2="85.0" y2="506.5" style="stroke:black;stroke-width:3" marker-end="url(#arrow)" />
<rect x="290" y="520" rx="20" ry="20" width="200" height="35" style="fill:none;stroke:black;stroke-width:3;" />
<text x="310" y="545" class="my_style">Internet</text>
<line x1="205" y1="543.3333333333334" x2="278" y2="543.3333333333334" style="stroke:black;stroke-width:3" marker-end="url(#arrow)" />
<line x1="290" y1="531.6666666666666" x2="217" y2="531.6666666666666" style="stroke:black;stroke-width:3" marker-end="url(#arrow)" />
</svg>