<?xml version="1.0" encoding="UTF-8" standalone="no"?>
<!-- Created with Inkscape (http://www.inkscape.org/) -->

<svg
   xmlns:dc="http://purl.org/dc/elements/1.1/"
   xmlns:cc="http://creativecommons.org/ns#"
   xmlns:rdf="http://www.w3.org/1999/02/22-rdf-syntax-ns#"
   xmlns:svg="http://www.w3.org/2000/svg"
   xmlns="http://www.w3.org/2000/svg"
   xmlns:sodipodi="http://sodipodi.sourceforge.net/DTD/sodipodi-0.dtd"
   xmlns:inkscape="http://www.inkscape.org/namespaces/inkscape"
   width="640"
   height="800"
   id="svg2"
   version="1.1"
   inkscape:version="0.47 r22583"
   sodipodi:docname="FrequencyModulation.svg"
   style="display:inline">
  <defs
     id="defs4">
    <inkscape:perspective
       sodipodi:type="inkscape:persp3d"
       inkscape:vp_x="0 : 526.18109 : 1"
       inkscape:vp_y="0 : 1000 : 0"
       inkscape:vp_z="744.09448 : 526.18109 : 1"
       inkscape:persp3d-origin="372.04724 : 350.78739 : 1"
       id="perspective10" />
    <inkscape:perspective
       id="perspective3598"
       inkscape:persp3d-origin="0.5 : 0.33333333 : 1"
       inkscape:vp_z="1 : 0.5 : 1"
       inkscape:vp_y="0 : 1000 : 0"
       inkscape:vp_x="0 : 0.5 : 1"
       sodipodi:type="inkscape:persp3d" />
    <inkscape:perspective
       id="perspective3620"
       inkscape:persp3d-origin="0.5 : 0.33333333 : 1"
       inkscape:vp_z="1 : 0.5 : 1"
       inkscape:vp_y="0 : 1000 : 0"
       inkscape:vp_x="0 : 0.5 : 1"
       sodipodi:type="inkscape:persp3d" />
    <inkscape:perspective
       id="perspective3645"
       inkscape:persp3d-origin="0.5 : 0.33333333 : 1"
       inkscape:vp_z="1 : 0.5 : 1"
       inkscape:vp_y="0 : 1000 : 0"
       inkscape:vp_x="0 : 0.5 : 1"
       sodipodi:type="inkscape:persp3d" />
    <inkscape:perspective
       id="perspective3676"
       inkscape:persp3d-origin="0.5 : 0.33333333 : 1"
       inkscape:vp_z="1 : 0.5 : 1"
       inkscape:vp_y="0 : 1000 : 0"
       inkscape:vp_x="0 : 0.5 : 1"
       sodipodi:type="inkscape:persp3d" />
    <inkscape:perspective
       id="perspective3737"
       inkscape:persp3d-origin="0.5 : 0.33333333 : 1"
       inkscape:vp_z="1 : 0.5 : 1"
       inkscape:vp_y="0 : 1000 : 0"
       inkscape:vp_x="0 : 0.5 : 1"
       sodipodi:type="inkscape:persp3d" />
    <inkscape:perspective
       id="perspective3807"
       inkscape:persp3d-origin="0.5 : 0.33333333 : 1"
       inkscape:vp_z="1 : 0.5 : 1"
       inkscape:vp_y="0 : 1000 : 0"
       inkscape:vp_x="0 : 0.5 : 1"
       sodipodi:type="inkscape:persp3d" />
    <inkscape:perspective
       id="perspective3807-8"
       inkscape:persp3d-origin="0.5 : 0.33333333 : 1"
       inkscape:vp_z="1 : 0.5 : 1"
       inkscape:vp_y="0 : 1000 : 0"
       inkscape:vp_x="0 : 0.5 : 1"
       sodipodi:type="inkscape:persp3d" />
    <inkscape:perspective
       id="perspective3807-1"
       inkscape:persp3d-origin="0.5 : 0.33333333 : 1"
       inkscape:vp_z="1 : 0.5 : 1"
       inkscape:vp_y="0 : 1000 : 0"
       inkscape:vp_x="0 : 0.5 : 1"
       sodipodi:type="inkscape:persp3d" />
    <inkscape:perspective
       id="perspective3807-2"
       inkscape:persp3d-origin="0.5 : 0.33333333 : 1"
       inkscape:vp_z="1 : 0.5 : 1"
       inkscape:vp_y="0 : 1000 : 0"
       inkscape:vp_x="0 : 0.5 : 1"
       sodipodi:type="inkscape:persp3d" />
    <inkscape:perspective
       id="perspective4156"
       inkscape:persp3d-origin="0.5 : 0.33333333 : 1"
       inkscape:vp_z="1 : 0.5 : 1"
       inkscape:vp_y="0 : 1000 : 0"
       inkscape:vp_x="0 : 0.5 : 1"
       sodipodi:type="inkscape:persp3d" />
    <inkscape:perspective
       id="perspective4797"
       inkscape:persp3d-origin="0.5 : 0.33333333 : 1"
       inkscape:vp_z="1 : 0.5 : 1"
       inkscape:vp_y="0 : 1000 : 0"
       inkscape:vp_x="0 : 0.5 : 1"
       sodipodi:type="inkscape:persp3d" />
    <inkscape:perspective
       id="perspective5342"
       inkscape:persp3d-origin="0.5 : 0.33333333 : 1"
       inkscape:vp_z="1 : 0.5 : 1"
       inkscape:vp_y="0 : 1000 : 0"
       inkscape:vp_x="0 : 0.5 : 1"
       sodipodi:type="inkscape:persp3d" />
    <inkscape:perspective
       id="perspective5342-7"
       inkscape:persp3d-origin="0.5 : 0.33333333 : 1"
       inkscape:vp_z="1 : 0.5 : 1"
       inkscape:vp_y="0 : 1000 : 0"
       inkscape:vp_x="0 : 0.5 : 1"
       sodipodi:type="inkscape:persp3d" />
  </defs>
  <sodipodi:namedview
     id="base"
     pagecolor="#ffffff"
     bordercolor="#666666"
     borderopacity="1.0"
     inkscape:pageopacity="0.0"
     inkscape:pageshadow="2"
     inkscape:zoom="0.3123071"
     inkscape:cx="1102.9735"
     inkscape:cy="-302.31802"
     inkscape:document-units="px"
     inkscape:current-layer="layer2"
     showgrid="false"
     inkscape:window-width="1600"
     inkscape:window-height="1181"
     inkscape:window-x="-4"
     inkscape:window-y="-4"
     inkscape:window-maximized="1" />
  <metadata
     id="metadata7">
    <rdf:RDF>
      <cc:Work
         rdf:about="">
        <dc:format>image/svg+xml</dc:format>
        <dc:type
           rdf:resource="http://purl.org/dc/dcmitype/StillImage" />
        <dc:title />
      </cc:Work>
    </rdf:RDF>
  </metadata>
  <g
     inkscape:groupmode="layer"
     id="layer2"
     inkscape:label="Waveforms"
     transform="translate(-102.56478,-81.206539)"
     sodipodi:insensitive="true">
    <g
       id="g5386">
      <g
         id="g5382">
        <path
           style="color:#000000;fill:none;stroke:#0500bf;stroke-width:2;stroke-linecap:butt;stroke-linejoin:miter;stroke-miterlimit:4;stroke-opacity:1;stroke-dasharray:none;stroke-dashoffset:0;marker:none;visibility:visible;display:inline;overflow:visible;enable-background:accumulate"
           d="m 112.42672,681.16881 c 1.13207,-39.0564 5.09431,-127.35784 9.6226,-127.35784 7.35845,0 6.73564,318.93826 25.47156,319.80969 24.3395,1.13206 43.01865,-319.80969 52.64124,-319.80969 10.18863,0 13.0188,319.80969 19.24519,319.80969 6.22638,0 9.62259,-319.80969 15.28294,-319.80969 5.66035,0 6.22638,319.80969 12.45276,319.80969 6.22639,0 5.66035,-319.24366 11.88674,-319.80969 6.22638,-0.56604 7.35845,319.80969 12.45276,319.80969 5.09432,0 5.66035,-319.80969 13.58484,-319.80969 7.92449,0 7.92449,320.37573 16.98104,319.80969 9.05656,-0.56603 9.05656,-320.37572 22.6414,-319.80969 13.58483,0.56604 20.94329,320.37572 33.39605,319.80969 12.45277,-0.56604 18.67915,-319.24366 25.47157,-319.80969 6.79242,-0.56604 14.71691,319.80969 20.94329,319.80969 6.22638,0 9.05656,-319.80969 15.84897,-319.80969 6.79242,0 9.05656,319.80969 16.98105,319.80969 7.92449,0 7.35845,-320.37572 15.84897,-319.80969 8.49053,0.56604 7.35846,319.80969 16.98105,319.80969 9.62259,0 8.49052,-319.24366 16.98104,-319.80969 8.49053,-0.56604 10.75467,319.80969 17.54708,319.80969 6.79242,0 10.75467,-319.80969 18.67915,-319.80969 7.92449,0 9.62259,319.80969 20.37725,319.80969 10.75467,0 9.05656,-319.80969 22.07536,-319.80969 13.01877,0 12.45277,320.37572 24.90557,319.80969 12.4527,-0.56604 14.1508,-319.80969 24.9055,-319.80969 10.7547,0 13.5848,320.37572 22.0754,319.80969 8.4905,-0.56604 11.8867,-319.80969 16.981,-319.80969 5.0943,0 9.0566,319.80969 15.849,319.80969 6.7924,0 5.0943,-319.80969 13.0188,-319.80969 7.9245,0 4.7021,320.36607 14.7169,319.80969 10.1886,-0.56604 4.5283,-319.80969 13.0188,-319.80969 8.4905,0 5.6603,319.80969 15.2829,319.80969 3.9623,0 5.0943,-27.73571 5.0943,-27.73571"
           id="path5322"
           sodipodi:nodetypes="cssssssssssssssssssssssssssssssssc" />
        <path
           style="color:#000000;fill:none;stroke:#0500bf;stroke-width:2;stroke-linecap:butt;stroke-linejoin:miter;stroke-miterlimit:4;stroke-opacity:1;stroke-dasharray:none;stroke-dashoffset:0;marker:none;visibility:visible;display:inline;overflow:visible;enable-background:accumulate"
           d="m 613.93359,523.9244 80.3769,0"
           id="path5324" />
      </g>
    </g>
    <g
       id="g5397">
      <g
         id="g5393">
        <path
           style="color:#000000;fill:none;stroke:#00a82a;stroke-width:2;stroke-linecap:butt;stroke-linejoin:miter;stroke-miterlimit:4;stroke-opacity:1;stroke-dasharray:none;stroke-dashoffset:0;marker:none;visibility:visible;display:inline;overflow:visible;enable-background:accumulate"
           d="m 110.72862,169.6245 c 3.96224,4.52828 11.88673,315.2814 20.37725,315.2814 8.49053,0 10.18863,-319.24364 19.24519,-319.24364 9.05655,0 10.18862,319.24364 19.24518,319.24364 9.05656,0 11.3207,-319.24364 19.81122,-319.24364 8.49052,0 9.05656,319.24364 18.67915,319.24364 9.62259,0 7.92449,-319.24364 19.24519,-319.24364 11.32069,0 10.18862,319.24364 19.81121,318.67761 9.6226,-0.56604 7.92449,-318.67761 18.67915,-318.67761 10.75467,0 9.05656,318.67761 19.81122,318.67761 10.75466,0 7.35846,-319.24365 19.24519,-318.67761 11.88673,0.56603 7.92449,320.37571 19.24518,320.37571 11.3207,0 9.62259,-321.50778 19.81122,-321.50778 10.18863,0 7.92449,320.94175 18.67915,320.94175 10.75466,0 7.92449,-320.37572 20.37725,-320.37572 12.45277,0 7.92449,320.94175 18.11312,320.94175 10.18863,0 10.18863,-320.94175 19.81122,-320.94175 9.62259,0 10.18863,320.37572 19.24518,320.37572 9.05656,0 10.18863,-320.94175 19.81122,-320.94175 9.62259,0 4.52828,320.37571 18.67915,320.37571 14.15087,0 8.49052,-320.37571 19.24519,-320.37571 10.75466,0 9.62259,322.07382 19.81122,322.07382 10.18862,0 10.18862,-321.50779 19.81122,-322.07382 9.62259,-0.56604 9.05655,321.50778 19.24518,321.50778 10.18863,0 9.05656,-322.07382 19.24522,-322.07382 10.1886,0 6.7924,322.07382 19.2451,322.07382 12.4528,0 8.4906,-321.50778 19.2452,-321.50778 10.7547,0 8.4906,322.07382 18.6792,322.07382 10.1886,0 10.7546,-322.07382 19.8112,-322.07382 9.0566,0 9.0566,320.94175 19.2452,320.94175 10.1886,0 8.4905,-322.07382 19.2452,-322.07382 10.7546,0 10.7546,323.20589 20.3772,322.63985 9.6226,-0.56603 10.7547,-305.09278 16.415,-313.5833 5.6604,-8.49052 5.6604,-8.49052 5.6604,-8.49052"
           id="path4804" />
        <path
           style="color:#000000;fill:none;stroke:#00a82a;stroke-width:2;stroke-linecap:butt;stroke-linejoin:miter;stroke-miterlimit:4;stroke-opacity:1;stroke-dasharray:none;stroke-dashoffset:0;marker:none;visibility:visible;display:inline;overflow:visible;enable-background:accumulate"
           d="m 615.06569,107.9267 76.4147,-0.56603"
           id="path5316" />
      </g>
    </g>
    <g
       id="g5408">
      <g
         id="g5404">
        <path
           style="color:#000000;fill:none;stroke:#bf0000;stroke-width:2;stroke-linecap:butt;stroke-linejoin:miter;stroke-miterlimit:4;stroke-opacity:1;stroke-dasharray:none;stroke-dashoffset:0;marker:none;visibility:visible;display:inline;overflow:visible;enable-background:accumulate"
           d="m 112.42672,290.18992 c 7.92449,28.30174 31.12727,133.80325 52.64124,134.15025 35.6602,0.56604 56.03746,-183.39528 89.43351,-180.56511 27.07263,2.29429 58.86762,142.07475 90.56557,140.94268 31.69795,-1.13207 46.98089,-87.16937 90.56557,-89.43351 20.09582,-1.04394 48.1746,23.76887 81.73789,27.84442 29.11349,3.53522 58.32349,37.24959 81.28019,37.24959 33.3961,0 70.1883,-97.35799 90.5655,-97.35799 20.3773,0 39.6225,55.47141 39.6225,55.47141"
           id="path5318"
           sodipodi:nodetypes="csssssssc" />
        <path
           style="color:#000000;fill:none;stroke:#bf0000;stroke-width:2;stroke-linecap:butt;stroke-linejoin:miter;stroke-miterlimit:4;stroke-opacity:1;stroke-dasharray:none;stroke-dashoffset:0;marker:none;visibility:visible;display:inline;overflow:visible;enable-background:accumulate"
           d="m 616.76379,137.92655 74.7166,0.56603"
           id="path5320" />
      </g>
    </g>
  </g>
  <g
     inkscape:groupmode="layer"
     id="layer3"
     inkscape:label="Text"
     style="display:inline"
     sodipodi:insensitive="true">
    <text
       transform="translate(-102.56478,-81.206539)"
       sodipodi:linespacing="125%"
       id="text5326-3"
       y="146.54489"
       x="524.92706"
       style="font-size:24px;font-style:normal;font-variant:normal;font-weight:normal;font-stretch:normal;text-align:start;line-height:125%;writing-mode:lr-tb;text-anchor:start;fill:#bf0000;fill-opacity:1;stroke:none;display:inline;font-family:DejaVu Sans;-inkscape-font-specification:DejaVu Sans"
       xml:space="preserve"><tspan
         y="146.54489"
         x="524.92706"
         id="tspan5328-4"
         sodipodi:role="line">signal</tspan></text>
    <text
       transform="translate(-102.56478,-81.206539)"
       sodipodi:linespacing="125%"
       id="text5326-1"
       y="117.21484"
       x="518.03088"
       style="font-size:24px;font-style:normal;font-variant:normal;font-weight:normal;font-stretch:normal;text-align:start;line-height:125%;writing-mode:lr-tb;text-anchor:start;fill:#00a82a;fill-opacity:1;stroke:none;display:inline;font-family:DejaVu Sans;-inkscape-font-specification:DejaVu Sans"
       xml:space="preserve"><tspan
         y="117.21484"
         x="518.03088"
         id="tspan5328-0"
         sodipodi:role="line">carrier</tspan></text>
    <text
       transform="translate(-102.56478,-81.206539)"
       sodipodi:linespacing="125%"
       id="text5326"
       y="531.24512"
       x="515.44354"
       style="font-size:24px;font-style:normal;font-variant:normal;font-weight:normal;font-stretch:normal;text-align:start;line-height:125%;writing-mode:lr-tb;text-anchor:start;fill:#0500bf;fill-opacity:1;stroke:none;display:inline;font-family:DejaVu Sans;-inkscape-font-specification:DejaVu Sans"
       xml:space="preserve"><tspan
         y="531.24512"
         x="515.44354"
         id="tspan5328"
         sodipodi:role="line">output</tspan></text>
  </g>
</svg>
