<?xml version="1.0" encoding="UTF-8" standalone="no"?>
<!DOCTYPE svg PUBLIC "-//W3C//DTD SVG 1.1//EN" "http://www.w3.org/Graphics/SVG/1.1/DTD/svg11.dtd">
<!-- Generated by Microsoft Visio, SVG Export PWM Basics.svg Page-1 -->
<svg xmlns="http://www.w3.org/2000/svg" xmlns:xlink="http://www.w3.org/1999/xlink" xmlns:ev="http://www.w3.org/2001/xml-events"
		xmlns:v="http://schemas.microsoft.com/visio/2003/SVGExtensions/" width="7.28922in" height="1.47882in"
		viewBox="0 0 524.824 106.475" xml:space="preserve" color-interpolation-filters="sRGB" class="st13">
	<v:documentProperties v:langID="1033" v:viewMarkup="false"/>

	<style type="text/css">
	<![CDATA[
		.st1 {fill:none;stroke:none;stroke-linecap:round;stroke-linejoin:round;stroke-width:0.72}
		.st2 {fill:#000000;font-family:Arial;font-size:0.833336em}
		.st3 {marker-end:url(#mrkr4-9);stroke:#000000;stroke-linecap:round;stroke-linejoin:round;stroke-width:0.72}
		.st4 {fill:#000000;fill-opacity:1;stroke:#000000;stroke-opacity:1;stroke-width:0.22222222222222}
		.st5 {stroke:#000000;stroke-linecap:round;stroke-linejoin:round;stroke-width:0.72}
		.st6 {stroke:#00b0f0;stroke-linecap:round;stroke-linejoin:round;stroke-width:1.2}
		.st7 {marker-end:url(#mrkr4-93);marker-start:url(#mrkr4-91);stroke:#000000;stroke-linecap:round;stroke-linejoin:round;stroke-width:0.72}
		.st8 {fill:#000000;fill-opacity:1;stroke:#000000;stroke-opacity:1;stroke-width:0.28571428571429}
		.st9 {marker-start:url(#mrkr4-91);stroke:#000000;stroke-linecap:round;stroke-linejoin:round;stroke-width:0.72}
		.st10 {font-size:1em;font-style:italic}
		.st11 {marker-end:url(#mrkr4-132);stroke:#000000;stroke-linecap:round;stroke-linejoin:round;stroke-width:0.72}
		.st12 {fill:#000000;fill-opacity:1;stroke:#000000;stroke-opacity:1;stroke-width:0.33333333333333}
		.st13 {fill:none;fill-rule:evenodd;font-size:12px;overflow:visible;stroke-linecap:square;stroke-miterlimit:3}
	]]>
	</style>

	<defs id="Markers">
		<g id="lend4">
			<path d="M 2 1 L 0 0 L 2 -1 L 2 1 " style="stroke:none"/>
		</g>
		<marker id="mrkr4-9" class="st4" v:arrowType="4" v:arrowSize="2" v:setback="9" refX="-9" orient="auto"
				markerUnits="strokeWidth" overflow="visible">
			<use xlink:href="#lend4" transform="scale(-4.5,-4.5) "/>
		</marker>
		<marker id="mrkr4-91" class="st8" v:arrowType="4" v:arrowSize="1" v:setback="6.5" refX="6.5" orient="auto"
				markerUnits="strokeWidth" overflow="visible">
			<use xlink:href="#lend4" transform="scale(3.5) "/>
		</marker>
		<marker id="mrkr4-93" class="st8" v:arrowType="4" v:arrowSize="1" v:setback="7" refX="-7" orient="auto"
				markerUnits="strokeWidth" overflow="visible">
			<use xlink:href="#lend4" transform="scale(-3.5,-3.5) "/>
		</marker>
		<marker id="mrkr4-132" class="st12" v:arrowType="4" v:arrowSize="0" v:setback="5.5" refX="-5.5" orient="auto"
				markerUnits="strokeWidth" overflow="visible">
			<use xlink:href="#lend4" transform="scale(-3,-3) "/>
		</marker>
	</defs>
	<g v:mID="0" v:index="1" v:groupContext="foregroundPage">
		<title>Page-1</title>
		<v:pageProperties v:drawingScale="1" v:pageScale="1" v:drawingUnits="19" v:shadowOffsetX="9" v:shadowOffsetY="-9"/>
		<v:layer v:name="Connector" v:index="0"/>
		<g id="shape1-1" v:mID="1" v:groupContext="shape" transform="translate(0.36,-74.4875)">
			<title>Sheet.1</title>
			<desc>Vdd</desc>
			<v:textBlock v:margins="rect(4,4,4,4)"/>
			<v:textRect cx="14.3438" cy="101.35" width="28.69" height="10.25"/>
			<rect x="0" y="96.225" width="28.6875" height="10.25" class="st1"/>
			<text x="6.89" y="104.35" class="st2" v:langID="1033"><v:paragraph v:horizAlign="2"/><v:tabList/>Vdd</text>		</g>
		<g id="shape2-4" v:mID="2" v:groupContext="shape" transform="translate(31.5787,-25.675)">
			<title>Sheet.2</title>
			<path d="M0 106.48 L479.52 106.48" class="st3"/>
		</g>
		<g id="shape3-10" v:mID="3" v:groupContext="shape" transform="translate(-56.8963,83.05) rotate(-90)">
			<title>Sheet.3</title>
			<path d="M0 106.48 L4.5 106.48" class="st5"/>
		</g>
		<g id="shape4-13" v:mID="4" v:groupContext="shape" transform="translate(-29.8963,83.05) rotate(-90)">
			<title>Sheet.4</title>
			<path d="M0 106.48 L4.5 106.48" class="st5"/>
		</g>
		<g id="shape5-16" v:mID="5" v:groupContext="shape" transform="translate(-2.89625,83.05) rotate(-90)">
			<title>Sheet.5</title>
			<path d="M0 106.48 L4.5 106.48" class="st5"/>
		</g>
		<g id="shape6-19" v:mID="6" v:groupContext="shape" transform="translate(24.1037,83.05) rotate(-90)">
			<title>Sheet.6</title>
			<path d="M0 106.48 L4.5 106.48" class="st5"/>
		</g>
		<g id="shape7-22" v:mID="7" v:groupContext="shape" transform="translate(51.1037,83.05) rotate(-90)">
			<title>Sheet.7</title>
			<path d="M0 106.48 L4.5 106.48" class="st5"/>
		</g>
		<g id="shape8-25" v:mID="8" v:groupContext="shape" transform="translate(78.1037,83.05) rotate(-90)">
			<title>Sheet.8</title>
			<path d="M0 106.48 L4.5 106.48" class="st5"/>
		</g>
		<g id="shape9-28" v:mID="9" v:groupContext="shape" transform="translate(105.104,83.05) rotate(-90)">
			<title>Sheet.9</title>
			<path d="M0 106.48 L4.5 106.48" class="st5"/>
		</g>
		<g id="shape10-31" v:mID="10" v:groupContext="shape" transform="translate(132.104,83.05) rotate(-90)">
			<title>Sheet.10</title>
			<path d="M0 106.48 L4.5 106.48" class="st5"/>
		</g>
		<g id="shape11-34" v:mID="11" v:groupContext="shape" transform="translate(159.104,83.05) rotate(-90)">
			<title>Sheet.11</title>
			<path d="M0 106.48 L4.5 106.48" class="st5"/>
		</g>
		<g id="shape12-37" v:mID="12" v:groupContext="shape" transform="translate(49.5787,-43.675)">
			<title>Sheet.12</title>
			<path d="M0 106.48 L0 70.48 L24.75 70.48 L24.75 106.48 L27 106.48 L27 70.48 L49.5 70.48 L49.5 106.48 L54 106.48 L54 70.48
						 L74.25 70.48 L74.25 106.48 L81 106.48 L81 70.48 L99 70.48 L99 106.48 L108 106.48 L108 70.48 L123.75 70.48
						 L123.75 106.48 L135 106.48 L135 70.48 L148.5 70.48 L148.5 106.48 L162 106.48 L162 70.48 L173.25 70.48 L173.25
						 106.48 L189 106.48 L189 70.48 L198 70.48 L198 106.48 L216 106.48 L216 70.48 L222.75 70.48 L222.75 106.48
						 L243 106.48 L243 70.48 L247.5 70.48 L247.5 106.48 L270 106.48 L270 70.48 L272.39 70.48 L272.39 106.48 L297
						 106.48 L297 70.48 L303.75 70.48 L303.75 106.48 L324 106.48 L324 70.48" class="st5"/>
		</g>
		<g id="shape13-40" v:mID="13" v:groupContext="shape" transform="translate(186.104,83.05) rotate(-90)">
			<title>Sheet.13</title>
			<path d="M0 106.48 L4.5 106.48" class="st5"/>
		</g>
		<g id="shape14-43" v:mID="14" v:groupContext="shape" transform="translate(213.104,83.05) rotate(-90)">
			<title>Sheet.14</title>
			<path d="M0 106.48 L4.5 106.48" class="st5"/>
		</g>
		<g id="shape15-46" v:mID="15" v:groupContext="shape" transform="translate(240.104,83.05) rotate(-90)">
			<title>Sheet.15</title>
			<path d="M0 106.48 L4.5 106.48" class="st5"/>
		</g>
		<g id="shape16-49" v:mID="16" v:groupContext="shape" transform="translate(267.104,83.05) rotate(-90)">
			<title>Sheet.16</title>
			<path d="M0 106.48 L4.5 106.48" class="st5"/>
		</g>
		<g id="shape17-52" v:mID="17" v:groupContext="shape" transform="translate(294.104,83.05) rotate(-90)">
			<title>Sheet.17</title>
			<path d="M0 106.48 L4.5 106.48" class="st5"/>
		</g>
		<g id="shape18-55" v:mID="18" v:groupContext="shape" transform="translate(321.104,83.05) rotate(-90)">
			<title>Sheet.18</title>
			<path d="M0 106.48 L4.5 106.48" class="st5"/>
		</g>
		<g id="shape19-58" v:mID="19" v:groupContext="shape" transform="translate(348.104,83.05) rotate(-90)">
			<title>Sheet.19</title>
			<path d="M0 106.48 L4.5 106.48" class="st5"/>
		</g>
		<g id="shape20-61" v:mID="20" v:groupContext="shape" transform="translate(375.104,83.05) rotate(-90)">
			<title>Sheet.20</title>
			<path d="M0 106.48 L4.5 106.48" class="st5"/>
		</g>
		<g id="shape21-64" v:mID="21" v:groupContext="shape" transform="translate(373.579,-43.675)">
			<title>Sheet.21</title>
			<path d="M0 70.48 L1.12 70.48 L11.25 70.48 L11.25 106.48 L27 106.48 L27 70.48" class="st5"/>
		</g>
		<g id="shape22-67" v:mID="22" v:groupContext="shape" transform="translate(400.579,-43.675)">
			<title>Sheet.22</title>
			<path d="M0 70.48 L15.75 70.48 L15.75 106.48 L27 106.48 L27 70.48 L47.25 70.48 L47.25 106.48 L54 106.48 L54 70.48 L78.75
						 70.48 L78.75 106.48 L81.56 106.48" class="st5"/>
		</g>
		<g id="shape23-70" v:mID="23" v:groupContext="shape" transform="translate(36.0787,-44.6888)">
			<title>Sheet.23</title>
			<path d="M0 75.99 C38.25 78.24 64.41 82.47 114.05 91.19 C143.79 96.41 181.95 103.25 226.12 105.59 C261.86 107.48 301.54
						 106.43 328.07 103.66 C347.97 101.59 360.48 98.56 376.75 94.5 C400.07 88.7 431.1 80.8 463.5 75.99"
					class="st6"/>
		</g>
		<g id="shape24-73" v:mID="24" v:groupContext="shape" transform="translate(-74.8963,80.8) rotate(-90)">
			<title>Sheet.24</title>
			<path d="M0 106.48 L72 106.48" class="st5"/>
		</g>
		<g id="shape25-76" v:mID="25" v:groupContext="shape" transform="translate(33.8287,133.275) rotate(180)">
			<title>Sheet.25</title>
			<path d="M0 106.48 L4.5 106.48" class="st5"/>
		</g>
		<g id="shape26-79" v:mID="26" v:groupContext="shape" transform="translate(33.8287,169.275) rotate(180)">
			<title>Sheet.26</title>
			<path d="M0 106.48 L4.5 106.48" class="st5"/>
		</g>
		<g id="shape27-82" v:mID="27" v:groupContext="shape" transform="translate(0.64125,-38.55)">
			<title>Sheet.27</title>
			<desc>Gnd</desc>
			<v:textBlock v:margins="rect(4,4,4,4)"/>
			<v:textRect cx="14.3438" cy="101.35" width="28.69" height="10.25"/>
			<rect x="0" y="96.225" width="28.6875" height="10.25" class="st1"/>
			<text x="5.79" y="104.35" class="st2" v:langID="1033"><v:paragraph v:horizAlign="2"/><v:tabList/>Gnd</text>		</g>
		<g id="shape28-85" v:mID="28" v:groupContext="shape" transform="translate(76.5787,194.025) rotate(180)">
			<title>Sheet.28</title>
			<path d="M4.68 106.48 L5.04 106.48 L21.96 106.48" class="st7"/>
		</g>
		<g id="shape29-94" v:mID="29" v:groupContext="shape" transform="translate(148.579,126.525) rotate(180)">
			<title>Sheet.29</title>
			<path d="M4.68 106.48 L5.04 106.48 L12.96 106.48" class="st7"/>
		</g>
		<g id="shape30-101" v:mID="30" v:groupContext="shape" transform="translate(68.7037,-3.05)">
			<title>Sheet.30</title>
			<desc>Pulse Window</desc>
			<v:textBlock v:margins="rect(4,4,4,4)"/>
			<v:textRect cx="37.125" cy="101.35" width="74.25" height="10.25"/>
			<rect x="0" y="96.225" width="74.25" height="10.25" class="st1"/>
			<text x="6.89" y="104.35" class="st2" v:langID="1033"><v:paragraph v:horizAlign="2"/><v:tabList/>Pulse Window</text>		</g>
		<g id="shape31-104" v:mID="31" v:groupContext="shape" transform="translate(133.954,-93.175)">
			<title>Sheet.31</title>
			<desc>Pulse Width</desc>
			<v:textBlock v:margins="rect(4,4,4,4)"/>
			<v:textRect cx="37.125" cy="101.35" width="74.25" height="10.25"/>
			<rect x="0" y="96.225" width="74.25" height="10.25" class="st1"/>
			<text x="16.89" y="104.35" class="st2" v:langID="1033"><v:paragraph v:horizAlign="2"/><v:tabList/>Pulse Width</text>		</g>
		<g id="shape32-107" v:mID="32" v:groupContext="shape" transform="translate(227.329,-93.175)">
			<title>Sheet.32</title>
			<desc>Digital Signal</desc>
			<v:textBlock v:margins="rect(4,4,4,4)"/>
			<v:textRect cx="37.125" cy="101.35" width="74.25" height="10.25"/>
			<rect x="0" y="96.225" width="74.25" height="10.25" class="st1"/>
			<text x="11.89" y="104.35" class="st2" v:langID="1033"><v:paragraph v:horizAlign="2"/><v:tabList/>Digital Signal</text>		</g>
		<g id="shape33-110" v:mID="33" v:groupContext="shape" transform="translate(333.079,-93.175)">
			<title>Sheet.33</title>
			<desc>Analog Signal (PWMA)</desc>
			<v:textBlock v:margins="rect(4,4,4,4)"/>
			<v:textRect cx="56.25" cy="101.35" width="112.5" height="10.25"/>
			<rect x="0" y="96.225" width="112.5" height="10.25" class="st1"/>
			<text x="6.24" y="104.35" class="st2" v:langID="1033"><v:paragraph v:horizAlign="2"/><v:tabList/>Analog Signal (PWMA)</text>		</g>
		<g id="shape34-113" v:mID="34" v:groupContext="shape" transform="translate(242.04,99.8392) rotate(-135)">
			<title>Sheet.34</title>
			<path d="M4.68 106.48 L5.04 106.48 L22.27 106.48" class="st9"/>
		</g>
		<g id="shape35-118" v:mID="35" v:groupContext="shape" transform="translate(395.04,108.839) rotate(-135)">
			<title>Sheet.35</title>
			<path d="M4.68 106.48 L5.04 106.48 L35 106.48" class="st9"/>
		</g>
		<g id="shape36-123" v:mID="36" v:groupContext="shape" transform="translate(140.704,-3.175)">
			<title>Sheet.36</title>
			<desc>= 1 / Pulse Frequency (f)</desc>
			<v:textBlock v:margins="rect(4,4,4,4)"/>
			<v:textRect cx="112.5" cy="101.35" width="225" height="10.25"/>
			<rect x="0" y="96.225" width="225" height="10.25" class="st1"/>
			<text x="4" y="104.36" class="st2" v:langID="1033"><v:paragraph/><v:tabList/>= 1 / Pulse Frequency (<tspan class="st10">f</tspan>)</text>		</g>
		<g id="shape37-127" v:mID="37" v:groupContext="shape" v:layerMember="0"
				transform="translate(1.96447,178.931) rotate(-138.814)">
			<title>Line-curve connector</title>
			<v:userDefs>
				<v:ud v:nameU="AntiScale" v:val="VT0(1):26"/>
				<v:ud v:nameU="Scale" v:val="VT0(1):26"/>
				<v:ud v:nameU="visVersion" v:val="VT0(12):26"/>
			</v:userDefs>
			<path d="M0 106.48 L2.1 104.32 L4.25 103.13 L6.44 102.91 L8.67 103.67 L8.94 103.91" class="st11"/>
		</g>
		<g id="shape38-133" v:mID="38" v:groupContext="shape" v:layerMember="0"
				transform="translate(78.4645,-72.4556) rotate(-41.1859) scale(-1,1)">
			<title>Line-curve connector.95</title>
			<v:userDefs>
				<v:ud v:nameU="AntiScale" v:val="VT0(1):26"/>
				<v:ud v:nameU="Scale" v:val="VT0(1):26"/>
				<v:ud v:nameU="visVersion" v:val="VT0(12):26"/>
			</v:userDefs>
			<path d="M0 106.48 L2.1 104.32 L4.25 103.13 L6.44 102.91 L8.67 103.67 L8.94 103.91" class="st11"/>
		</g>
	</g>
</svg>
